<svg version="1.1" id="Layer_1" xmlns="http://www.w3.org/2000/svg" x="0px" y="0px" viewBox="0 0 289.4 139.8" class="css-1a91df1"><path id="border-right" d="M144.7,4.7h72.1c35.7,0,64.7,29,64.7,64.7l0,0c0,35.7-29,64.7-64.7,64.7h-72.1" style="fill: none; stroke: rgb(26, 32, 31);"></path><path id="border-left" d="M144.7,134.1H72.6c-35.7,0-64.7-29-64.7-64.7l0,0c0-35.7,29-64.7,64.7-64.7h72.1" style="fill: none; stroke: rgb(26, 32, 31);"></path><path id="logo" d="M182,73.2c-5.6,0-7.6,3.6-8,5.4h-0.7v-3.1c0-1.8-1.1-2.3-2.3-2.3c-0.3,0-0.6,0.1-0.9,0.1l-10.3,2v1.2 c0,0,3.1,1,3.1,4.7v24.2c0,3.2-2.3,4.7-2.3,4.7v1.5h15.7v-1.5c0,0-2.3-1.3-2.3-4.7v-22c0-2.2,1-4.3,3.4-4.3c2.8,0,4.1,2.8,4.1,8.3 c0,5.2-1.2,7.8-3.9,8.5c-0.7,0.2-1.3,0.2-1.8,0.2c-0.3,0-0.4,0-0.4,0v1.1c0,0,1.5,3.7,6.4,3.7c6.8,0,11.2-7.3,11.2-14.8 C192.9,79.7,189.5,73.2,182,73.2z M172.4,68.3c9.7,0,13-7.5,13-7.5l-0.9-1c0,0-3.5,2.5-8.2,2.5c-4.7,0-7.2-3.5-7.2-9.7 c0-5.2,1.2-7.6,3.8-7.6c1.9,0,2.9,1.4,2.9,3.3c0,4.5-5.4,4.6-5.4,4.6v1.5c0,0,3,1.7,7.4,1.7c4.9,0,7.6-1.7,7.6-5.9 c0-5.3-5.8-9.6-12.6-9.6c-8.1,0-14.9,5.2-14.9,14.1C158,62.8,163.5,68.3,172.4,68.3z M74,71c0-0.9,0.6-2.8,3.7-2.8 c3.3,0,6.1,2.6,8.3,4.6c1.6,1.4,2.8,2.5,2.8,2.5l1.5-0.4l-0.6-10.3c-0.1-1-1-1.5-1.8-1.3l-3.4,1c0,0-3.2-1.2-7.5-1.2 c-4.1,0-7.5,1.1-10.1,3.3c-2.5,2.2-3.9,5-3.9,8.5c0,12.9,18.4,11.5,18.4,17.3c0,1.9-1.6,3.1-4.5,3.1c-2.8,0-5.2-1.9-7.1-3.8 c-2.5-2.4-4.6-4.4-4.6-4.4l-1.8,0.7l0.8,10.5c0.1,1,0.9,1.5,1.8,1.3l3-0.8c0,0,3.7,1.7,8.5,1.7c7.5,0,14.9-4.2,14.9-12.5 C92.6,75.7,74,77.4,74,71z M93.5,38.9c1.5-2.3,3.5-2.3,5.2-2.3h1.3l-0.1,24.7c0,3.2-2.6,5-2.6,5v1.4h17.1v-1.4c0,0-2.7-1.7-2.7-5 V36.6h1.3c1.6,0,3.7,0,5.2,2.3c0.5,0.8,3.5,5.6,3.5,5.6l2.5-0.7l-1.2-10.2c-0.1-1.3-1.2-2.2-2.5-2.2H91.1c-1.3,0-2.3,1-2.5,2.2 l-1.2,10.2l2.5,0.7C90,44.5,93,39.7,93.5,38.9z M126.6,36.6V62c0,3.2-2.6,4.5-2.6,4.5v1.3h15.2v-1.3c0,0-2-0.6-2-4V50 c0-1.8,2-3.3,3.5-3.3c2.6,0,3.9,1.5,3.9,4.5v11.4c0,3.2-2,4-2,4v1.3h15.4v-1.3c0,0-2.7-1.2-2.7-4.5V51.2c0-6.6-3-10.5-9.2-10.5 c-4.1,0-8.2,2.2-8.2,5.4h-0.6V32.8v-2.4c0-1.9-1.3-2.6-3.3-2.2l-9.9,2l-0.1,1.2C123.9,31.4,126.6,32.9,126.6,36.6z M196.4,69.2v25 c0,3.2-2.6,4.5-2.6,4.5l-0.1,1.7H210v-1.8c0,0-2.7-1-2.7-4.3V65.3V63c0-1.9-1.3-2.6-3.3-2.2l-10.3,2V64 C193.7,64,196.4,65.5,196.4,69.2z M124.3,92.4V75.6c0-1.8-1.1-2.4-2.3-2.4c-0.3,0-0.6,0.1-0.9,0.1l-10.7,2.2v1.3c0,0,3,1,3,4.7v10.8 c0,1.3-1.8,2.4-3.5,2.4c-2.2,0-3.2-1.5-3.2-4.5V75.5c0-1.8-1.1-2.4-2.3-2.4c-0.3,0-0.6,0.1-0.9,0.1l-10.8,2.2v1.3c0,0,3.1,1,3.1,4.7 v9.4c0,6.3,3.3,10,9.5,10c4.3,0,8.4-2.3,8.4-5.9h0.7v3.2c0,1.9,1.1,2.7,3.2,2.7c5.3,0,10-3.9,10-3.9v-1.1 C127.4,95.8,124.3,95.8,124.3,92.4z M149,73.2c-5.6,0-7.6,3.6-8,5.4h-0.7v-3.1c0-1.8-1.1-2.3-2.3-2.3c-0.3,0-0.6,0.1-0.9,0.1 l-10.3,2v1.2c0,0,3.1,1,3.1,4.7v24.2c0,3.2-2.3,4.7-2.3,4.7v1.5h15.7v-1.5c0,0-2.3-1.3-2.3-4.7v-22c0-2.2,1-4.3,3.4-4.3 c2.8,0,4.1,2.8,4.1,8.3c0,5.2-1.2,7.8-3.9,8.5c-0.7,0.2-1.3,0.2-1.8,0.2c-0.3,0-0.4,0-0.4,0v1.1c0,0,1.5,3.7,6.4,3.7 c6.8,0,11.2-7.3,11.2-14.8C159.9,79.7,156.5,73.2,149,73.2z M230.9,73.7v1.2c0,0,1.7,1.5,1.7,4c0,0.8-0.2,1.7-0.6,2.8l-3.6,10.3 l-3.9-11.4c-0.3-0.6-0.3-1.3-0.3-1.9c0-2.4,1.8-3.9,1.8-3.9v-1.2h-16.6v1.2c0,0,1.9,1.9,3.4,5.3c2.3,5.2,3.5,11.7,5.9,17.3 c1,2.3,2.3,3.6,5.8,3.6c0,0.4-4.6,11.2-15.2,11.2c-9,0-8.3-6.5-14.3-6.5c-2.7,0-4.7,2.4-4.7,5.1c0,5.5,6.6,7.3,13.7,7.3 c14.9,0,22.1-8.2,27.1-20.1c2.7-6.3,5.1-13,7.5-18.9c1.2-3.1,2.6-4.3,2.6-4.3v-1.2L230.9,73.7L230.9,73.7z" style="fill: rgb(26, 32, 31);"></path><g id="the-path"><path d="M134.9,29.1c0.9,0,1.3,0.4,1.3,1.3v2.4v13.3v1h1h0.3c-0.8,0.8-1.3,1.8-1.3,2.9v12.5c0,2.3,0.9,3.6,1.6,4.2 h-12.4c0.9-0.8,2.2-2.3,2.2-4.8V36.6c0-3-1.5-4.8-2.5-5.6l8.9-1.8C134.3,29.2,134.6,29.1,134.9,29.1 M120.5,32.4 c0.8,0,1.4,0.6,1.5,1.4l1.1,9.4l-1,0.3c-0.8-1.3-2.7-4.3-3.1-5c-1.7-2.8-4.4-2.8-6-2.8h-1.3h-1v1v24.7c0,2.8,1.7,4.7,2.6,5.5H98.3 c0.9-0.8,2.5-2.7,2.5-5.5l0.1-24.7l0-1h-1h-1.3c-1.7,0-4.3,0-6,2.8c-0.4,0.6-2.3,3.6-3.1,5l-1-0.3l1.1-9.4c0.1-0.8,0.7-1.3,1.5-1.3 H120.5 M172.8,41.6c6.4,0,11.6,3.9,11.6,8.6c0,2.3-0.7,4.9-6.6,4.9c-3,0-5.2-0.8-6.3-1.3c2.3-0.4,5.3-1.8,5.3-5.5 c0-2.6-1.6-4.3-3.9-4.3c-4.8,0-4.8,6.5-4.8,8.6c0,6.8,3,10.7,8.2,10.7c3.4,0,6.2-1.2,7.6-2c-1.2,1.9-4.5,6-11.5,6 c-8.3,0-13.4-4.8-13.5-12.6C159,47,164.7,41.6,172.8,41.6 M145.9,41.7c5.5,0,8.2,3.2,8.2,9.5V62c0,2.5,1.3,4,2.3,4.8h-12.6 c0.8-0.7,1.7-2,1.7-4.2V51.2c0-4.8-3-5.5-4.9-5.5c-0.6,0-1.3,0.2-1.9,0.5v-0.1C138.8,44,141.7,41.7,145.9,41.7 M134.9,28.1 c-0.3,0-0.6,0-1,0.1l-9.9,2l-0.1,1.2c0,0,2.7,1.5,2.7,5.2V62c0,3.2-2.6,4.5-2.6,4.5v1.3h15.2v-1.3c0,0-2-0.6-2-4V50 c0-1.8,2-3.3,3.5-3.3c2.6,0,3.9,1.5,3.9,4.5v11.4c0,3.2-2,4-2,4v1.3h15.4v-1.3c0,0-2.7-1.2-2.7-4.5V51.2c0-6.6-3-10.5-9.2-10.5 c-4.1,0-8.2,2.2-8.2,5.4h-0.6V32.8v-2.4C137.2,28.9,136.3,28.1,134.9,28.1L134.9,28.1z M120.5,31.4H91.1c-1.3,0-2.3,1-2.5,2.2 l-1.2,10.2l2.5,0.7c0,0,3-4.8,3.5-5.6c1.5-2.3,3.5-2.3,5.2-2.3h1.3l-0.1,24.7c0,3.2-2.6,5-2.6,5v1.4h17.1v-1.4c0,0-2.7-1.7-2.7-5 V36.6h1.3c1.6,0,3.7,0,5.2,2.3c0.5,0.8,3.5,5.6,3.5,5.6l2.5-0.7l-1.2-10.2C122.8,32.3,121.7,31.4,120.5,31.4L120.5,31.4z M172.8,40.6c-8.1,0-14.9,5.2-14.9,14.1c0.1,8.1,5.5,13.6,14.5,13.6c9.7,0,13-7.5,13-7.5l-0.9-1c0,0-3.5,2.5-8.2,2.5 c-4.7,0-7.2-3.5-7.2-9.7c0-5.2,1.2-7.6,3.8-7.6c1.9,0,2.9,1.4,2.9,3.3c0,4.5-5.4,4.6-5.4,4.6v1.5c0,0,3,1.7,7.4,1.7 c4.9,0,7.6-1.7,7.6-5.9C185.5,44.9,179.7,40.6,172.8,40.6L172.8,40.6z" style="fill: rgb(26, 32, 31);"></path></g><g id="supply-path"><path d="M205,61.6c0.9,0,1.3,0.4,1.3,1.3v2.4v28.9c0,2.9,1.7,4.4,2.7,4.9v0.2h-14.2l0-0.1c0.9-0.6,2.6-2.2,2.6-5v-25 c0-3-1.6-4.8-2.5-5.6l9.4-1.9C204.5,61.7,204.8,61.6,205,61.6 M77.1,64c4,0,7.1,1.1,7.1,1.1l0.3,0.1l0.3-0.1l3.4-0.9 c0,0,0.1,0,0.1,0c0,0,0.5,0,0.5,0.4l0.6,9.5l-0.2,0c-0.5-0.4-1.4-1.2-2.4-2.1l-0.4-0.4c-2.3-2-5.1-4.5-8.6-4.5 C74,67.2,73,69.7,73,71c0,3.4,3.7,4.8,7.6,6.3c5.1,2,10.9,4.3,10.9,10.8c0,3.5-1.5,6.4-4.3,8.5c-2.5,1.9-6,2.9-9.7,2.9 c-4.5,0-8-1.6-8.1-1.6l-0.3-0.1l-0.3,0.1l-3,0.8c-0.1,0-0.1,0-0.2,0c-0.2,0-0.4-0.1-0.5-0.5l-0.7-9.8l0.6-0.2 c0.8,0.7,2.4,2.3,4.1,4c2.1,2,4.6,4.1,7.8,4.1c4,0,5.5-2.1,5.5-4.1c0-3-3.3-4.3-7.2-5.8c-5.3-2.1-11.2-4.4-11.2-11.5 c0-3.2,1.1-5.7,3.5-7.7C70.1,65,73.2,64,77.1,64 M104.3,74.1c0.9,0,1.3,0.4,1.3,1.4v14.7c0,4.8,2.6,5.5,4.2,5.5 c0.9,0,1.9-0.3,2.7-0.7c-0.1,3.1-3.8,4.9-7.4,4.9c-5.6,0-8.5-3.1-8.5-9v-9.4c0-2.8-1.6-4.4-2.9-5.2l9.8-2 C103.9,74.2,104.1,74.1,104.3,74.1 M182,74.2c3.1,0,5.6,1.2,7.4,3.7c1.6,2.1,2.4,5.1,2.5,8.3c0,3.6-1,7.1-2.9,9.7 c-1.3,1.9-3.7,4.2-7.3,4.2c-3.4,0-4.9-2-5.3-2.8c0.4,0,0.9-0.1,1.4-0.2c4.1-1.1,4.7-5.6,4.7-9.5c0-6.2-1.7-9.3-5.1-9.3 c-0.9,0-1.7,0.2-2.3,0.7l0,0C175.4,77.1,177.3,74.2,182,74.2 M171.1,74.2c0.9,0,1.3,0.3,1.3,1.3v3.1v1h1h0.7h0.1 c-0.8,0.9-1.2,2.3-1.2,3.9v22c0,2.9,1.5,4.5,2.3,5.2v0h-13.7c0.8-0.7,2.3-2.4,2.3-5.2V81.3c0-2.7-1.5-4.4-2.8-5.2l9.2-1.8 C170.6,74.3,170.9,74.2,171.1,74.2 M149,74.2c3.1,0,5.6,1.2,7.4,3.7c1.6,2.1,2.4,5.1,2.5,8.3c0,3.6-1,7.1-2.9,9.7 c-1.3,1.9-3.7,4.2-7.3,4.2c-3.4,0-4.9-2-5.3-2.8c0.4,0,0.9-0.1,1.4-0.2c4.1-1.1,4.7-5.6,4.7-9.5c0-6.2-1.7-9.3-5.1-9.3 c-0.9,0-1.7,0.2-2.3,0.7l0,0C142.4,77.1,144.3,74.2,149,74.2 M138.1,74.2c0.9,0,1.3,0.3,1.3,1.3v3.1v1h1h0.7h0.1 c-0.8,0.9-1.2,2.3-1.2,3.9v22c0,2.9,1.5,4.5,2.3,5.2v0h-13.7c0.8-0.7,2.3-2.4,2.3-5.2V81.3c0-2.7-1.5-4.4-2.8-5.2l9.2-1.8 C137.6,74.3,137.9,74.2,138.1,74.2 M122,74.2c0.9,0,1.3,0.4,1.3,1.4v16.8c0,2.6,1.6,3.8,2.9,4.2c-1.4,1-4.9,3.2-8.8,3.2 c-2,0-2.2-0.9-2.2-1.7v-3.2v-1h-1h-0.5c0.3-0.5,0.5-1,0.5-1.6V81.5c0-3-1.7-4.6-2.8-5.2l9.7-2C121.5,74.3,121.8,74.2,122,74.2 M239.9,74.6c-0.6,0.7-1.5,2-2.3,4.1c-0.7,1.9-1.5,3.8-2.3,5.8c-1.7,4.3-3.4,8.8-5.2,13.1c-5.7,13.7-13.5,19.5-26.1,19.5 c-3.8,0-12.7-0.6-12.7-6.3c0-2,1.4-4.1,3.7-4.1c2.3,0,3.4,1.1,4.8,2.5c1.8,1.8,4.1,4,9.5,4c11.3,0,16.2-11.4,16.2-12.2v-1h-1 c-3.1,0-4-1-4.9-3c-1.2-2.8-2.2-5.9-3.1-8.9c-0.9-3-1.7-5.8-2.9-8.4c-1.1-2.5-2.4-4.2-3.1-5h14.2c-0.7,0.8-1.6,2.2-1.6,4 c0,0.8,0.1,1.6,0.4,2.2l3.9,11.4l0.9,2.7l1-2.7l3.6-10.3c0.4-1.2,0.6-2.2,0.6-3.1c0-2-0.9-3.4-1.5-4.2H239.9 M205,60.6 c-0.3,0-0.6,0-1,0.1l-10.3,2V64c0,0,2.7,1.5,2.7,5.2v25c0,3.2-2.6,4.5-2.6,4.5l-0.1,1.7H210v-1.8c0,0-2.7-1-2.7-4.3V65.3V63 C207.3,61.4,206.4,60.6,205,60.6L205,60.6z M77.1,63c-4.1,0-7.5,1.1-10.1,3.3c-2.5,2.2-3.9,5-3.9,8.5c0,12.9,18.4,11.5,18.4,17.3 c0,1.9-1.6,3.1-4.5,3.1c-2.8,0-5.2-1.9-7.1-3.8c-2.5-2.4-4.6-4.4-4.6-4.4l-1.8,0.7l0.8,10.5c0.1,0.9,0.7,1.4,1.5,1.4 c0.1,0,0.2,0,0.4,0l3-0.8c0,0,3.7,1.7,8.5,1.7c7.5,0,14.9-4.2,14.9-12.5C92.6,75.7,74,77.4,74,71c0-0.9,0.6-2.8,3.7-2.8 c3.3,0,6.1,2.6,8.3,4.6c1.6,1.4,2.8,2.5,2.8,2.5l1.5-0.4l-0.6-10.3c-0.1-0.9-0.8-1.4-1.5-1.4c-0.1,0-0.2,0-0.3,0l-3.4,1 C84.5,64.1,81.3,63,77.1,63L77.1,63z M104.3,73.1c-0.3,0-0.6,0.1-0.9,0.1l-10.8,2.2v1.3c0,0,3.1,1,3.1,4.7v9.4c0,6.3,3.3,10,9.5,10 c4.3,0,8.4-2.3,8.4-5.9h0.7v3.2c0,1.9,1.1,2.7,3.2,2.7c5.3,0,10-3.9,10-3.9v-1.1c0,0-3.2-0.1-3.2-3.5V75.6c0-1.8-1.1-2.4-2.3-2.4 c-0.3,0-0.6,0.1-0.9,0.1l-10.7,2.2v1.3c0,0,3,1,3,4.7v10.8c0,1.3-1.8,2.4-3.5,2.4c-2.2,0-3.2-1.5-3.2-4.5V75.5 C106.6,73.7,105.5,73.1,104.3,73.1L104.3,73.1z M182,73.2c-5.6,0-7.6,3.6-8,5.4h-0.7v-3.1c0-1.8-1.1-2.3-2.3-2.3 c-0.3,0-0.6,0.1-0.9,0.1l-10.3,2v1.2c0,0,3.1,1,3.1,4.7v24.2c0,3.2-2.3,4.7-2.3,4.7v1.5h15.7v-1.5c0,0-2.3-1.3-2.3-4.7v-22 c0-2.2,1-4.3,3.4-4.3c2.8,0,4.1,2.8,4.1,8.3c0,5.2-1.2,7.8-3.9,8.5c-0.7,0.2-1.3,0.2-1.8,0.2c-0.3,0-0.4,0-0.4,0v1.1 c0,0,1.5,3.7,6.4,3.7c6.8,0,11.2-7.3,11.2-14.8C192.9,79.7,189.5,73.2,182,73.2L182,73.2z M149,73.2c-5.6,0-7.6,3.6-8,5.4h-0.7 v-3.1c0-1.8-1.1-2.3-2.3-2.3c-0.3,0-0.6,0.1-0.9,0.1l-10.3,2v1.2c0,0,3.1,1,3.1,4.7v24.2c0,3.2-2.3,4.7-2.3,4.7v1.5h15.7v-1.5 c0,0-2.3-1.3-2.3-4.7v-22c0-2.2,1-4.3,3.4-4.3c2.8,0,4.1,2.8,4.1,8.3c0,5.2-1.2,7.8-3.9,8.5c-0.7,0.2-1.3,0.2-1.8,0.2 c-0.3,0-0.4,0-0.4,0v1.1c0,0,1.5,3.7,6.4,3.7c6.8,0,11.2-7.3,11.2-14.8C159.9,79.7,156.5,73.2,149,73.2L149,73.2z M241.2,73.6 h-10.2v0.1v1.2c0,0,1.7,1.5,1.7,4c0,0.8-0.2,1.7-0.6,2.8l-3.6,10.3l-3.9-11.4c-0.3-0.6-0.3-1.3-0.3-1.9c0-2.4,1.8-3.9,1.8-3.9v-1.2 h-16.6v1.2c0,0,1.9,1.9,3.4,5.3c2.3,5.2,3.5,11.7,5.9,17.3c1,2.3,2.3,3.6,5.8,3.6c0,0.4-4.6,11.2-15.2,11.2c-9,0-8.3-6.5-14.3-6.5 c-2.7,0-4.7,2.4-4.7,5.1c0,5.5,6.6,7.3,13.7,7.3c14.9,0,22.1-8.2,27.1-20.1c2.7-6.3,5.1-13,7.5-18.9c1.2-3.1,2.6-4.3,2.6-4.3V73.6 L241.2,73.6z" style="fill: rgb(26, 32, 31);"></path></g></svg>